<mxfile host="app.diagrams.net" modified="2021-04-14T16:48:35.458Z" agent="5.0 (Windows NT 10.0; Win64; x64) AppleWebKit/537.36 (KHTML, like Gecko) Chrome/89.0.4389.114 Safari/537.36" etag="H5kXf6O8oueL2dijpgIq" version="14.6.0" type="github">
  <diagram id="YbJ3gdxs-N2uprx0W4Lc" name="Page-1">
    <mxGraphModel dx="1422" dy="762" grid="1" gridSize="10" guides="1" tooltips="1" connect="1" arrows="1" fold="1" page="1" pageScale="1" pageWidth="827" pageHeight="1169" math="0" shadow="0">
      <root>
        <mxCell id="0" />
        <mxCell id="1" parent="0" />
        <mxCell id="6J_N8UA7ibtdLKnviK2s-3" style="edgeStyle=orthogonalEdgeStyle;rounded=0;orthogonalLoop=1;jettySize=auto;html=1;" edge="1" parent="1" source="6J_N8UA7ibtdLKnviK2s-1" target="6J_N8UA7ibtdLKnviK2s-10">
          <mxGeometry relative="1" as="geometry">
            <mxPoint x="320" y="200" as="targetPoint" />
            <Array as="points">
              <mxPoint x="120" y="170" />
              <mxPoint x="120" y="104" />
            </Array>
          </mxGeometry>
        </mxCell>
        <mxCell id="6J_N8UA7ibtdLKnviK2s-17" style="edgeStyle=orthogonalEdgeStyle;rounded=0;orthogonalLoop=1;jettySize=auto;html=1;" edge="1" parent="1" source="6J_N8UA7ibtdLKnviK2s-1" target="6J_N8UA7ibtdLKnviK2s-10">
          <mxGeometry relative="1" as="geometry" />
        </mxCell>
        <mxCell id="6J_N8UA7ibtdLKnviK2s-1" value="Usuario&lt;br&gt;&lt;br&gt;" style="shape=umlActor;verticalLabelPosition=bottom;verticalAlign=top;html=1;" vertex="1" parent="1">
          <mxGeometry x="80" y="170" width="30" height="60" as="geometry" />
        </mxCell>
        <mxCell id="6J_N8UA7ibtdLKnviK2s-4" value="Requisição via GET- http&lt;br&gt;" style="text;html=1;align=center;verticalAlign=middle;resizable=0;points=[];autosize=1;strokeColor=none;" vertex="1" parent="1">
          <mxGeometry x="215" y="60" width="150" height="20" as="geometry" />
        </mxCell>
        <mxCell id="6J_N8UA7ibtdLKnviK2s-7" style="edgeStyle=orthogonalEdgeStyle;rounded=0;orthogonalLoop=1;jettySize=auto;html=1;" edge="1" parent="1" source="6J_N8UA7ibtdLKnviK2s-6" target="6J_N8UA7ibtdLKnviK2s-1">
          <mxGeometry relative="1" as="geometry">
            <Array as="points">
              <mxPoint x="476" y="220" />
            </Array>
          </mxGeometry>
        </mxCell>
        <mxCell id="6J_N8UA7ibtdLKnviK2s-9" value="exibe as informações do CPF&lt;br&gt;" style="edgeLabel;html=1;align=center;verticalAlign=middle;resizable=0;points=[];" vertex="1" connectable="0" parent="6J_N8UA7ibtdLKnviK2s-7">
          <mxGeometry x="-0.1495" y="2" relative="1" as="geometry">
            <mxPoint as="offset" />
          </mxGeometry>
        </mxCell>
        <mxCell id="6J_N8UA7ibtdLKnviK2s-6" value="" style="aspect=fixed;html=1;points=[];align=center;image;fontSize=12;image=img/lib/mscae/Virtual_Datacenter.svg;" vertex="1" parent="1">
          <mxGeometry x="420" y="68" width="112" height="112" as="geometry" />
        </mxCell>
        <mxCell id="6J_N8UA7ibtdLKnviK2s-15" style="edgeStyle=orthogonalEdgeStyle;rounded=0;orthogonalLoop=1;jettySize=auto;html=1;entryX=-0.018;entryY=0.313;entryDx=0;entryDy=0;entryPerimeter=0;" edge="1" parent="1" source="6J_N8UA7ibtdLKnviK2s-10" target="6J_N8UA7ibtdLKnviK2s-6">
          <mxGeometry relative="1" as="geometry" />
        </mxCell>
        <mxCell id="6J_N8UA7ibtdLKnviK2s-10" value="" style="pointerEvents=1;shadow=0;dashed=0;html=1;strokeColor=none;fillColor=#005F4B;labelPosition=center;verticalLabelPosition=bottom;verticalAlign=top;align=center;outlineConnect=0;shape=mxgraph.veeam2.backup_browser;" vertex="1" parent="1">
          <mxGeometry x="190" y="90" width="28.000000000000004" height="28.000000000000004" as="geometry" />
        </mxCell>
        <mxCell id="6J_N8UA7ibtdLKnviK2s-16" value="&lt;a href=&quot;http://bcpf.mec.gov.br:3100/api/v1/pessoaFisica/CPF&quot; target=&quot;_blank&quot; style=&quot;background-color: rgb(255 , 255 , 255) ; color: rgb(9 , 30 , 66) ; outline: 0px ; font-family: , &amp;#34;blinkmacsystemfont&amp;#34; , &amp;#34;segoe ui&amp;#34; , &amp;#34;roboto&amp;#34; , &amp;#34;noto sans&amp;#34; , &amp;#34;ubuntu&amp;#34; , &amp;#34;droid sans&amp;#34; , &amp;#34;helvetica neue&amp;#34; , sans-serif ; font-size: 14px&quot;&gt;http://bcpf.mec.gov.br:3100&lt;/a&gt;" style="text;html=1;align=center;verticalAlign=middle;resizable=0;points=[];autosize=1;strokeColor=none;" vertex="1" parent="1">
          <mxGeometry x="414" y="40" width="180" height="20" as="geometry" />
        </mxCell>
        <mxCell id="6J_N8UA7ibtdLKnviK2s-18" value="preenche usuario e senha&lt;br&gt;" style="text;html=1;align=center;verticalAlign=middle;resizable=0;points=[];autosize=1;strokeColor=none;" vertex="1" parent="1">
          <mxGeometry x="210" y="150" width="150" height="20" as="geometry" />
        </mxCell>
      </root>
    </mxGraphModel>
  </diagram>
</mxfile>
